HIERARCHY
ROOT Hips
{
	OFFSET 0.000000 8.830580 0.000000
	CHANNELS 6 Xposition Yposition Zposition Zrotation Yrotation Xrotation 
	JOINT Spine
	{
		OFFSET 0.000000 0.010000 0.000000
		CHANNELS 3 Zrotation Yrotation Xrotation
		JOINT Spine1
		{
			OFFSET 0.000000 2.459130 0.000000
			CHANNELS 3 Zrotation Yrotation Xrotation
			JOINT Neck
			{
				OFFSET 0.000000 2.484630 0.000000
				CHANNELS 3 Zrotation Yrotation Xrotation
				JOINT Head_virtual
				{
					OFFSET 0.000000 0.000000 0.000000
					CHANNELS 3 Zrotation Yrotation Xrotation
					JOINT Head
					{
						OFFSET 0.000000 0.927525 0.000000
						CHANNELS 3 Zrotation Yrotation Xrotation
						End Site
						{
							OFFSET 0.000000 0.000000 0.000000
						}
					}
				}
				JOINT LeftUpArm_virtual
				{
					OFFSET 0.000000 0.000000 0.000000
					CHANNELS 3 Zrotation Yrotation Xrotation
					JOINT LeftUpArm
					{
						OFFSET 1.248820 0.000000 0.000000
						CHANNELS 3 Zrotation Yrotation Xrotation
						JOINT LeftForeArm
						{
							OFFSET 2.597580 0.000000 0.000000
							CHANNELS 3 Zrotation Yrotation Xrotation
							JOINT LeftHand
							{
								OFFSET 2.455420 0.000000 0.000000
								CHANNELS 3 Zrotation Yrotation Xrotation
								End Site
								{
									OFFSET 0.000000 0.000000 0.000000
								}
							}
						}
					}
				}
				JOINT RightUpArm_virtual
				{
					OFFSET -0.000000 -0.000000 -0.000000
					CHANNELS 3 Zrotation Yrotation Xrotation
					JOINT RightUpArm
					{
						OFFSET -1.248820 -0.000000 -0.000000
						CHANNELS 3 Zrotation Yrotation Xrotation
						JOINT RightForeArm
						{
							OFFSET -2.597580 -0.000000 -0.000000
							CHANNELS 3 Zrotation Yrotation Xrotation
							JOINT RightHand
							{
								OFFSET -2.455420 -0.000000 -0.000000
								CHANNELS 3 Zrotation Yrotation Xrotation
								End Site
								{
									OFFSET 0.000000 0.000000 0.000000
								}
							}
						}
					}
				}
			}
		}
	}
	JOINT LeftUpLeg
	{
		OFFSET 1.271939 0.000000 0.000000
		CHANNELS 3 Zrotation Yrotation Xrotation
		JOINT LeftLowLeg
		{
			OFFSET 0.000000 -4.342910 0.000000
			CHANNELS 3 Zrotation Yrotation Xrotation
			JOINT LeftFoot
			{
				OFFSET 0.000000 -4.487670 0.000000
				CHANNELS 3 Zrotation Yrotation Xrotation
				JOINT LeftToeBase
				{
					OFFSET 0.000000 0.000000 1.515070
					CHANNELS 3 Zrotation Yrotation Xrotation
					End Site
					{
						OFFSET 0.000000 0.000000 0.000000
					}
				}
			}
		}
	}
	JOINT RightUpLeg
	{
		OFFSET -1.271939 0.000000 0.000000
		CHANNELS 3 Zrotation Yrotation Xrotation
		JOINT RightLowLeg
		{
			OFFSET 0.000000 -4.342910 0.000000
			CHANNELS 3 Zrotation Yrotation Xrotation
			JOINT RightFoot
			{
				OFFSET 0.000000 -4.487670 0.000000
				CHANNELS 3 Zrotation Yrotation Xrotation
				JOINT RightToeBase
				{
					OFFSET 0.000000 0.000000 1.515070
					CHANNELS 3 Zrotation Yrotation Xrotation
					End Site
					{
						OFFSET 0.000000 0.000000 0.000000
					}
				}
			}
		}
	}
}
MOTION
Frames: 8
Frame Time: 0.041667
-19.309481 5.544414 44.749868 -173.768066 3.445554 164.300482 6.125387 -3.269295 15.076418 -1.176787 -2.499536 15.240151 0.000000 0.000000 0.000000 -4.438630 7.051492 -14.302884 5.877128 3.627886 -57.675803 -12.395400 -3.268540 5.128000 -22.391800 -50.680099 -3.812840 0.000000 -77.407700 0.000000 30.922001 19.048000 -25.112400 19.985001 3.151100 6.831970 25.354099 32.829899 5.902380 0.000000 88.310898 0.000000 -2.408360 -13.760800 -39.164902 4.702904 5.299957 -61.595691 0.000000 0.000000 89.522903 11.118388 0.905524 -0.171622 0.000000 0.000000 -39.482100 4.713095 -5.247272 -58.755551 0.000000 0.000000 87.300598 15.987024 1.975373 -0.396735 0.000000 0.000000 -26.906800 
-19.310423 5.542279 44.750821 -173.769000 3.443158 164.315306 6.312445 -3.315006 15.546470 -1.508523 -2.499654 14.144238 0.000000 0.000000 0.000000 -4.658458 7.225310 -13.637060 6.130469 3.631470 -57.901744 -12.276900 -3.326250 5.570440 -22.291201 -51.189701 -4.573290 0.000000 -76.405296 0.000000 30.589701 18.922800 -25.431299 20.348101 3.018070 7.408230 25.326099 33.112301 5.823170 0.000000 88.052597 0.000000 -2.458990 -13.631600 -38.487400 4.693130 5.286897 -61.639704 0.000000 0.000000 89.544403 11.125182 0.920182 -0.163021 0.000000 0.000000 -39.489201 4.703719 -5.246678 -58.799029 0.000000 0.000000 87.324898 16.010546 1.988475 -0.387733 0.000000 0.000000 -26.930100 
-19.311245 5.542269 44.751630 -173.753152 3.436555 164.321808 6.259446 -3.476126 15.738405 -1.517065 -2.684944 13.691522 0.000000 0.000000 0.000000 -4.965237 7.438068 -13.235861 5.935293 3.739293 -58.030904 -12.300300 -3.100340 5.656430 -22.273399 -51.740799 -5.249260 0.000000 -75.379601 0.000000 30.288700 18.710400 -25.580500 20.416300 3.274040 7.749130 25.437700 33.378300 5.792400 0.000000 87.809700 0.000000 -2.440800 -13.724700 -38.626999 4.699916 5.268472 -61.652954 0.000000 0.000000 89.540298 11.112818 0.922122 -0.154220 0.000000 0.000000 -39.476900 4.709258 -5.257739 -58.801928 0.000000 0.000000 87.309196 15.999067 1.988829 -0.366921 0.000000 0.000000 -26.957900 
-19.311560 5.541626 44.752098 -173.748636 3.430645 164.311820 6.221105 -3.527142 15.853819 -1.476564 -2.754707 13.385855 0.000000 0.000000 0.000000 -5.332119 7.571728 -13.091390 6.060777 3.624146 -58.066271 -12.306800 -3.138270 5.726550 -22.268000 -52.230301 -5.869590 0.000000 -74.304298 0.000000 29.577700 18.445801 -26.282801 20.435499 3.378550 7.888060 25.631500 33.585999 5.807660 0.000000 87.487801 0.000000 -2.439310 -13.696300 -38.729198 4.702012 5.256339 -61.653634 0.000000 0.000000 89.544502 11.126933 0.931422 -0.145620 0.000000 0.000000 -39.484200 4.707927 -5.260913 -58.798447 0.000000 0.000000 87.312202 16.009730 1.983448 -0.374725 0.000000 0.000000 -26.927600 
-19.311189 5.543620 44.750971 -173.729042 3.432123 164.190247 6.006889 -3.177742 14.495576 -0.877952 -2.438009 16.444006 0.000000 0.000000 0.000000 -5.565853 7.299106 -15.481891 6.137554 3.017015 -56.945033 -11.757800 -4.004470 4.147830 -23.323299 -53.068901 -6.004900 0.000000 -73.131302 0.000000 28.556601 18.078600 -27.058599 19.656000 3.097370 6.104510 26.434999 34.149200 6.007230 0.000000 87.168900 0.000000 -2.207170 -13.690900 -38.857101 4.733254 5.258970 -61.508839 0.000000 0.000000 89.532799 11.124229 0.914250 -0.161121 0.000000 0.000000 -39.490400 4.715692 -5.264069 -58.641813 0.000000 0.000000 87.289200 16.028151 1.987905 -0.384831 0.000000 0.000000 -26.932700 
-19.310258 5.544488 44.750491 -173.722294 3.432370 164.208977 5.778595 -3.255084 14.481774 -0.540054 -2.584909 16.399256 0.000000 0.000000 0.000000 -6.133534 7.475871 -15.467008 6.201072 2.901940 -56.951359 -12.020300 -3.945610 4.063360 -23.256399 -53.512901 -6.496770 0.000000 -71.958603 0.000000 27.308201 17.711500 -27.651400 19.573000 3.294390 6.192030 26.491800 34.417198 6.098170 0.000000 86.873100 0.000000 -2.519360 -13.750700 -39.160000 4.738675 5.281448 -61.521013 0.000000 0.000000 89.532997 11.154380 0.915603 -0.163921 0.000000 0.000000 -39.492500 4.726074 -5.243590 -58.648167 0.000000 0.000000 87.281303 16.016123 1.965034 -0.393031 0.000000 0.000000 -26.941800 
-19.310395 5.543775 44.752596 -173.724571 3.410767 164.185372 5.752195 -3.294766 14.538860 -0.579929 -2.636149 16.257081 0.000000 0.000000 0.000000 -6.371408 7.606470 -15.397154 6.309961 2.878761 -56.929778 -11.938700 -4.002350 4.060490 -23.426399 -54.007599 -6.748920 0.000000 -70.626900 0.000000 26.250999 17.221701 -27.723900 19.608601 3.379650 6.308130 26.640200 34.627899 6.098830 0.000000 86.521500 0.000000 -2.428410 -13.713100 -38.580601 4.727894 5.282115 -61.497595 0.000000 0.000000 89.494698 11.128575 0.864723 -0.173919 0.000000 0.000000 -39.487600 4.709824 -5.249594 -58.640031 0.000000 0.000000 87.277100 16.011542 1.955149 -0.371016 0.000000 0.000000 -26.972100 
-19.310129 5.542922 44.753204 -173.721063 3.419612 164.173701 5.794522 -3.383926 14.741985 -0.752448 -2.716961 15.741353 0.000000 0.000000 0.000000 -6.607973 7.794299 -15.027918 6.467960 2.916261 -56.957600 -11.906300 -3.924330 4.194080 -23.629299 -54.436699 -6.753120 0.000000 -69.206596 0.000000 25.420900 16.889999 -27.608400 19.829700 3.532250 6.644990 26.609400 34.778099 6.171660 0.000000 86.201103 0.000000 -2.586630 -13.891800 -38.913601 4.727129 5.308080 -61.501110 0.000000 0.000000 89.508003 11.152567 0.872033 -0.173020 0.000000 0.000000 -39.462200 4.715307 -5.231361 -58.639522 0.000000 0.000000 87.282898 16.031364 1.947750 -0.368813 0.000000 0.000000 -26.967200 
